<svg xmlns="http://www.w3.org/2000/svg" viewBox="0 0 1600 1067" role="img" aria-label="Clinical white review ring with a flowing paper ribbon"><defs><radialGradient id="g"><stop stop-color="#fff"/><stop offset=".72" stop-color="#f4f4f6"/><stop offset="1" stop-color="#e9e9ed"/></radialGradient><linearGradient id="r" x1="0" y1="0" x2="1" y2="1"><stop stop-color="#fff"/><stop offset=".45" stop-color="#dadde4"/><stop offset="1" stop-color="#fff"/></linearGradient><filter id="ds"><feDropShadow dx="0" dy="30" stdDeviation="24" flood-opacity=".13"/></filter></defs><rect width="1600" height="1067" fill="url(#g)"/><g transform="translate(1030 535)" filter="url(#ds)"><circle r="293" fill="none" stroke="#0071e3" stroke-width="10"/><circle r="245" fill="none" stroke="#d7eaff" stroke-width="2" stroke-dasharray="5 17"/><path d="M-420-62C-277-244-99-242-24-97c72 138 231 128 324-12 56-85 141-134 273-74l-24 150c-99-49-156-4-202 65-116 175-363 185-465-6-61-114-179-85-302 75z" fill="url(#r)"/><path d="M-420-62C-277-244-99-242-24-97c72 138 231 128 324-12 56-85 141-134 273-74" fill="none" stroke="#fff" stroke-width="4" opacity=".85"/></g><circle cx="1029" cy="534" r="59" fill="#0f1012"/><circle cx="1029" cy="534" r="17" fill="#fff"/><path d="M134 917C478 701 673 886 794 988" fill="none" stroke="#0071e3" stroke-width="1.5" opacity=".5"/></svg>