<svg xmlns="http://www.w3.org/2000/svg" viewBox="0 0 1600 1067" role="img" aria-label="Green editorial papers arranged in a printed composition"><defs><filter id="grain"><feTurbulence type="fractalNoise" baseFrequency=".9" numOctaves="3" stitchTiles="stitch"/><feColorMatrix type="saturate" values="0"/><feComponentTransfer><feFuncA type="table" tableValues="0 .08"/></feComponentTransfer></filter><filter id="sh"><feDropShadow dx="0" dy="22" stdDeviation="18" flood-opacity=".2"/></filter></defs><rect width="1600" height="1067" fill="#fafffa"/><rect width="1600" height="1067" filter="url(#grain)" opacity=".7"/><g filter="url(#sh)"><path d="M284 160h662v663H284z" fill="#202a21" transform="rotate(-7 615 492)"/><path d="M425 216h630v622H425z" fill="#d9e8db" transform="rotate(8 740 527)"/><path d="M689 272h546v515H689z" fill="#eef4ef" transform="rotate(-3 962 529)"/></g><g fill="none" stroke="#232924" opacity=".36"><path d="M502 357h344M486 407h402M468 457h333M724 573h394M713 620h448M700 668h359" stroke-width="13" stroke-linecap="round"/></g><path d="M102 860C304 727 388 719 573 852" fill="none" stroke="#2bee4b" stroke-width="42"/><path d="M1042 117l224 57" stroke="#2bee4b" stroke-width="17"/><circle cx="1338" cy="852" r="109" fill="#2bee4b"/><path d="M1289 855l33 33 73-86" fill="none" stroke="#121613" stroke-width="25" stroke-linecap="round" stroke-linejoin="round"/></svg>