<svg xmlns="http://www.w3.org/2000/svg" viewBox="0 0 770 200" fill="none" aria-hidden="true">
  <g class="logo-mark">
    <rect class="logo-squircle" width="202" height="200" rx="48" fill="#0C0132"/>
    <g class="logo-plate-a"><g transform="scale(0.16666667) translate(0,1200) scale(1,-1)">
      <path fill="#4C477F" d="M360 741 l0 -3 -12 0 -12 0 0 -6 0 -6 -6 0 -6 0 0 -12 0 -12 -3 0 -3
0 0 -222 0 -222 3 0 3 0 0 -12 0 -12 6 0 6 0 0 -6 0 -6 6 0 6 0 0 -6 0 -6 12
0 12 0 0 -6 0 -6 9 0 9 0 0 -3 c0 -3 0 -3 3 -3 3 0 3 0 3 -3 l0 -3 6 0 6 0 0
-3 c0 -3 0 -3 3 -3 3 0 3 0 3 -3 l0 -3 9 0 9 0 0 -6 0 -6 9 0 9 0 0 -3 c0 -3
0 -3 3 -3 3 0 3 0 3 -3 l0 -3 6 0 6 0 0 -3 0 -3 6 0 6 0 0 -3 0 -3 6 0 6 0 0
-6 0 -6 12 0 12 0 0 -6 0 -6 9 0 9 0 0 -3 c0 -3 0 -3 3 -3 3 0 3 0 3 -3 l0 -3
9 0 9 0 0 -3 c0 -3 0 -3 3 -3 3 0 3 0 3 -3 l0 -3 21 0 21 0 0 3 c0 3 0 3 3 3
3 0 3 0 3 3 l0 3 6 0 6 0 0 6 0 6 6 0 6 0 0 15 0 15 3 0 3 0 0 33 0 33 -3 0
-3 0 0 96 0 96 3 0 3 0 0 12 0 12 -3 0 -3 0 0 12 0 12 3 0 3 0 0 6 0 6 6 0 6
0 0 3 c0 3 0 3 -3 3 l-3 0 0 9 0 9 -3 0 c-3 0 -3 0 -3 3 0 3 0 3 -3 3 l-3 0 0
45 0 45 3 0 c3 0 3 0 3 3 0 3 0 3 3 3 3 0 3 0 3 3 l0 3 -15 0 -15 0 0 3 c0 3
0 3 -3 3 l-3 0 0 6 0 6 -3 0 c-3 0 -3 0 -3 3 l0 3 -9 0 -9 0 0 6 0 6 -6 0 -6
0 0 3 c0 3 0 3 -3 3 -3 0 -3 0 -3 3 0 3 0 3 -3 3 l-3 0 0 6 0 6 -9 0 -9 0 0 3
c0 3 0 3 -3 3 -3 0 -3 0 -3 3 l0 3 -9 0 -9 0 0 3 c0 3 0 3 -3 3 -3 0 -3 0 -3
3 l0 3 -6 0 -6 0 0 3 0 3 -6 0 -6 0 0 3 0 3 -9 0 -9 0 0 3 c0 3 0 3 -3 3 -3 0
-3 0 -3 3 l0 3 -6 0 -6 0 0 6 0 6 -9 0 -9 0 0 3 c0 3 0 3 -3 3 -3 0 -3 0 -3 3
l0 3 -6 0 -6 0 0 3 0 3 -6 0 -6 0 0 3 0 3 -9 0 -9 0 0 3 0 3 -15 0 -15 0 0 -3z"/>
    </g></g>
    <g class="logo-plate-b"><g transform="scale(0.16666667) translate(0,1200) scale(1,-1)">
      <path fill="#4D44D3" d="M594 1047 c0 -3 0 -3 -3 -3 -3 0 -3 0 -3 -3 0 -3 0 -3 -3 -3 -3 0 -3
0 -3 -3 0 -3 0 -3 -3 -3 -3 0 -3 0 -3 -3 0 -3 0 -3 -3 -3 -3 0 -3 0 -3 -3 0
-3 0 -3 -3 -3 l-3 0 0 -195 0 -195 3 0 c3 0 3 0 3 -3 0 -3 0 -3 3 -3 3 0 3 0
3 -3 l0 -3 6 0 6 0 0 -3 c0 -3 0 -3 3 -3 3 0 3 0 3 -3 0 -3 0 -3 3 -3 l3 0 0
-6 0 -6 27 0 27 0 0 -3 c0 -3 0 -3 3 -3 3 0 3 0 3 -3 l0 -3 6 0 6 0 0 -6 0 -6
6 0 6 0 0 -6 0 -6 6 0 6 0 0 -6 0 -6 6 0 6 0 0 -6 0 -6 6 0 6 0 0 -6 0 -6 6 0
6 0 0 -6 0 -6 6 0 6 0 0 -6 0 -6 6 0 6 0 0 -6 0 -6 3 0 c3 0 3 0 3 -3 0 -3 0
-3 3 -3 3 0 3 0 3 -3 l0 -3 6 0 6 0 0 -6 0 -6 6 0 6 0 0 -6 0 -6 6 0 6 0 0 -3
c0 -3 0 -3 3 -3 3 0 3 0 3 -3 0 -3 0 -3 3 -3 3 0 3 0 3 -3 0 -3 0 -3 3 -3 3 0
3 0 3 -3 0 -3 0 -3 3 -3 3 0 3 0 3 -3 0 -3 0 -3 3 -3 3 0 3 0 3 -3 0 -3 0 -3
3 -3 l3 0 0 -12 0 -12 6 0 6 0 0 3 0 3 6 0 6 0 0 3 0 3 6 0 6 0 0 144 0 144
-3 0 -3 0 0 54 0 54 -3 0 -3 0 0 30 0 30 3 0 3 0 0 9 0 9 -3 0 -3 0 0 21 0 21
-6 0 -6 0 0 6 0 6 -3 0 c-3 0 -3 0 -3 3 0 3 0 3 -3 3 -3 0 -3 0 -3 3 l0 3 -9
0 -9 0 0 3 c0 3 0 3 -3 3 -3 0 -3 0 -3 3 l0 3 -6 0 -6 0 0 3 c0 3 0 3 -3 3 -3
0 -3 0 -3 3 0 3 0 3 -3 3 -3 0 -3 0 -3 3 0 3 0 3 -3 3 -3 0 -3 0 -3 3 l0 3
-15 0 -15 0 0 6 0 6 -6 0 -6 0 0 3 c0 3 0 3 -3 3 -3 0 -3 0 -3 3 l0 3 -9 0 -9
0 0 3 c0 3 0 3 -3 3 -3 0 -3 0 -3 3 l0 3 -9 0 -9 0 0 6 0 6 -12 0 -12 0 0 6 0
6 -6 0 -6 0 0 3 c0 3 0 3 -3 3 -3 0 -3 0 -3 3 l0 3 -30 0 -30 0 0 -3z"/>
    </g></g>
    <g class="logo-nib"><g transform="scale(0.16666667) translate(0,1200) scale(1,-1)">
      <path fill="#E86A5A" d="M648 573 c0 -3 0 -3 -3 -3 l-3 0 0 -18 0 -18 -3 0 -3 0 0 -12 0 -12
3 0 3 0 0 -6 0 -6 3 0 3 0 0 -6 0 -6 9 0 9 0 0 -3 c0 -3 0 -3 3 -3 3 0 3 0 3
-3 l0 -3 9 0 9 0 0 -3 c0 -3 0 -3 3 -3 3 0 3 0 3 -3 l0 -3 12 0 12 0 0 -6 0
-6 12 0 12 0 0 -6 0 -6 6 0 6 0 0 -3 0 -3 6 0 6 0 0 -3 0 -3 12 0 12 0 0 -3
c0 -3 0 -3 3 -3 3 0 3 0 3 -3 l0 -3 6 0 6 0 0 -3 0 -3 9 0 9 0 0 6 0 6 -3 0
c-3 0 -3 0 -3 3 l0 3 -6 0 -6 0 0 3 c0 3 0 3 -3 3 l-3 0 0 6 0 6 -3 0 c-3 0
-3 0 -3 3 l0 3 -6 0 -6 0 0 3 c0 3 0 3 -3 3 l-3 0 0 6 0 6 -3 0 c-3 0 -3 0 -3
3 l0 3 -9 0 -9 0 0 12 0 12 -12 0 -12 0 0 6 0 6 -3 0 c-3 0 -3 0 -3 3 0 3 0 3
-3 3 -3 0 -3 0 -3 3 l0 3 -6 0 -6 0 0 9 0 9 -3 0 c-3 0 -3 0 -3 3 l0 3 -9 0
-9 0 0 6 0 6 -3 0 c-3 0 -3 0 -3 3 0 3 0 3 -3 3 -3 0 -3 0 -3 3 l0 3 -6 0 -6
0 0 3 0 3 -6 0 -6 0 0 -3z"/>
    </g></g>
  </g>
  <g class="logo-word">
    <g transform="translate(232,21)" fill="#0C0132" fill-rule="evenodd">
      <g transform="scale(0.25) translate(0,632) scale(1,-1)">
        <path class="logo-letter logo-letter-b" d="M1664 630 l0 -2 -4 0 -4 0 0 -216 0 -216 2 0 2 0 0 -4 0 -4 2 0 2 0
0 -8 0 -8 4 0 4 0 0 -4 0 -4 4 0 4 0 0 -4 0 -4 4 0 4 0 0 -2 0 -2 4 0 4 0 0
-2 0 -2 4 0 4 0 0 -2 0 -2 4 0 4 0 0 -2 0 -2 28 0 28 0 0 2 0 2 4 0 4 0 0 2 0
2 8 0 8 0 0 2 0 2 4 0 4 0 0 8 0 8 2 0 2 0 0 8 0 8 2 0 2 0 0 10 0 10 -24 0
-24 0 0 2 c0 1 -1 2 -2 2 -1 0 -2 1 -2 2 0 1 -1 2 -2 2 -1 0 -2 1 -2 2 0 1 -1
2 -2 2 -1 0 -2 1 -2 2 0 1 -1 2 -2 2 l-2 0 0 204 0 204 -36 0 -36 0 0 2 0 2
-4 0 -4 0 0 -2z"/>
        <path class="logo-letter logo-letter-a" d="M1464 532 l0 -96 -6 0 -6 0 0 2 c0 1 -1 2 -2 2 l-2 0 0 4 0 4 -2 0
c-1 0 -2 1 -2 2 0 1 -1 2 -2 2 -1 0 -2 1 -2 2 0 1 -1 2 -2 2 -1 0 -2 1 -2 2 0
1 -1 2 -2 2 l-2 0 0 4 0 4 -4 0 -4 0 0 2 c0 1 -1 2 -2 2 -1 0 -2 1 -2 2 l0 2
-6 0 -6 0 0 2 c0 1 -1 2 -2 2 -1 0 -2 1 -2 2 l0 2 -10 0 -10 0 0 2 0 2 -4 0
-4 0 0 2 0 2 -18 0 -18 0 0 -2 0 -2 -6 0 -6 0 0 -2 0 -2 -8 0 -8 0 0 -2 0 -2
-4 0 -4 0 0 -2 0 -2 -4 0 -4 0 0 -2 0 -2 -4 0 -4 0 0 -2 0 -2 -4 0 -4 0 0 -4
0 -4 -4 0 -4 0 0 -2 c0 -1 -1 -2 -2 -2 -1 0 -2 -1 -2 -2 0 -1 -1 -2 -2 -2 -1
0 -2 -1 -2 -2 0 -1 -1 -2 -2 -2 -1 0 -2 -1 -2 -2 0 -1 -1 -2 -2 -2 l-2 0 0 -4
0 -4 -4 0 -4 0 0 -4 0 -4 -2 0 c-1 0 -2 -1 -2 -2 0 -1 -1 -2 -2 -2 l-2 0 0 -6
0 -6 -4 0 -4 0 0 -10 0 -10 -2 0 c-1 0 -2 -1 -2 -2 0 -1 -1 -2 -2 -2 l-2 0 0
-12 0 -12 -2 0 -2 0 0 -8 0 -8 -2 0 -2 0 0 -32 0 -32 2 0 2 0 0 -8 0 -8 2 0 2
0 0 -14 0 -14 2 0 c1 0 2 -1 2 -2 0 -1 1 -2 2 -2 l2 0 0 -8 0 -8 2 0 2 0 0 -4
0 -4 2 0 2 0 0 -4 0 -4 4 0 4 0 0 -4 0 -4 2 0 2 0 0 -4 0 -4 2 0 c1 0 2 -1 2
-2 0 -1 1 -2 2 -2 1 0 2 -1 2 -2 0 -1 1 -2 2 -2 l2 0 0 -4 0 -4 4 0 4 0 0 -2
c0 -1 1 -2 2 -2 1 0 2 -1 2 -2 l0 -2 4 0 4 0 0 -2 c0 -1 1 -2 2 -2 1 0 2 -1 2
-2 l0 -2 4 0 4 0 0 -2 c0 -1 1 -2 2 -2 1 0 2 -1 2 -2 l0 -2 10 0 10 0 0 -2 0
-2 4 0 4 0 0 -2 0 -2 26 0 26 0 0 2 0 2 4 0 4 0 0 2 0 2 8 0 8 0 0 2 c0 1 1 2
2 2 1 0 2 1 2 2 l0 2 8 0 8 0 0 4 0 4 4 0 4 0 0 4 0 4 4 0 4 0 0 4 0 4 4 0 4
0 0 4 0 4 2 0 c1 0 2 1 2 2 0 1 1 2 2 2 l2 0 0 6 0 6 6 0 6 0 0 -2 c0 -1 1 -2
2 -2 l2 0 0 -26 0 -26 40 0 40 0 0 240 0 240 -44 0 -44 0 0 -96z m-48 -114 l0
-2 4 0 4 0 0 -2 0 -2 4 0 4 0 0 -4 0 -4 4 0 4 0 0 -4 0 -4 2 0 c1 0 2 -1 2 -2
0 -1 1 -2 2 -2 l2 0 0 -6 0 -6 4 0 4 0 0 -8 0 -8 2 0 2 0 0 -8 0 -8 2 0 2 0 0
-32 0 -32 -2 0 -2 0 0 -4 0 -4 -2 0 -2 0 0 -12 0 -12 -4 0 -4 0 0 -8 0 -8 -4
0 -4 0 0 -4 0 -4 -4 0 -4 0 0 -4 0 -4 -4 0 -4 0 0 -2 c0 -1 -1 -2 -2 -2 -1 0
-2 -1 -2 -2 l0 -2 -10 0 -10 0 0 -2 0 -2 -4 0 -4 0 0 -2 0 -2 -6 0 -6 0 0 2 0
2 -6 0 -6 0 0 2 0 2 -10 0 -10 0 0 2 c0 1 -1 2 -2 2 -1 0 -2 1 -2 2 l0 2 -4 0
-4 0 0 4 0 4 -4 0 -4 0 0 4 0 4 -4 0 -4 0 0 8 0 8 -4 0 -4 0 0 12 0 12 -2 0
-2 0 0 8 0 8 -2 0 -2 0 0 24 0 24 2 0 2 0 0 4 0 4 2 0 2 0 0 16 0 16 4 0 4 0
0 4 0 4 2 0 2 0 0 4 0 4 2 0 c1 0 2 1 2 2 0 1 1 2 2 2 1 0 2 1 2 2 0 1 1 2 2
2 1 0 2 1 2 2 0 1 1 2 2 2 1 0 2 1 2 2 l0 2 4 0 4 0 0 2 c0 1 1 2 2 2 1 0 2 1
2 2 l0 2 32 0 32 0 0 -2z"/>
        <path class="logo-letter logo-letter-n" d="M16 594 l0 -2 -6 0 -6 0 0 -2 c0 -1 -1 -2 -2 -2 l-2 0 0 -220 0 -220
120 0 120 0 0 2 0 2 4 0 4 0 0 2 0 2 16 0 16 0 0 4 0 4 8 0 8 0 0 4 0 4 6 0 6
0 0 2 c0 1 1 2 2 2 1 0 2 1 2 2 l0 2 4 0 4 0 0 4 0 4 4 0 4 0 0 4 0 4 2 0 c1
0 2 1 2 2 0 1 1 2 2 2 l2 0 0 6 0 6 4 0 4 0 0 8 0 8 2 0 2 0 0 4 0 4 2 0 2 0
0 30 0 30 -2 0 c-1 0 -2 1 -2 2 0 1 -1 2 -2 2 l-2 0 0 8 0 8 -2 0 c-1 0 -2 1
-2 2 0 1 -1 2 -2 2 l-2 0 0 6 0 6 -4 0 -4 0 0 2 c0 1 -1 2 -2 2 -1 0 -2 1 -2
2 0 1 -1 2 -2 2 l-2 0 0 4 0 4 -4 0 -4 0 0 2 0 2 -4 0 -4 0 0 2 0 2 -4 0 -4 0
0 2 c0 1 -1 2 -2 2 -1 0 -2 1 -2 2 l0 2 -10 0 -10 0 0 8 0 8 8 0 8 0 0 4 0 4
6 0 6 0 0 2 c0 1 1 2 2 2 1 0 2 1 2 2 l0 2 4 0 4 0 0 4 0 4 4 0 4 0 0 4 0 4 2
0 2 0 0 4 0 4 2 0 2 0 0 4 0 4 4 0 4 0 0 10 0 10 2 0 c1 0 2 1 2 2 0 1 1 2 2
2 l2 0 0 22 0 22 -2 0 -2 0 0 4 0 4 -2 0 -2 0 0 10 0 10 -2 0 c-1 0 -2 1 -2 2
0 1 -1 2 -2 2 l-2 0 0 4 0 4 -2 0 c-1 0 -2 1 -2 2 0 1 -1 2 -2 2 l-2 0 0 4 0
4 -2 0 c-1 0 -2 1 -2 2 0 1 -1 2 -2 2 -1 0 -2 1 -2 2 l0 2 -4 0 -4 0 0 4 0 4
-4 0 -4 0 0 4 0 4 -8 0 -8 0 0 4 0 4 -12 0 -12 0 0 2 c0 1 -1 2 -2 2 -1 0 -2
1 -2 2 l0 2 -20 0 -20 0 0 2 0 2 -4 0 -4 0 0 2 0 2 -94 0 -94 0 0 -2z m192
-72 c0 -1 1 -2 2 -2 1 0 2 -1 2 -2 l0 -2 6 0 6 0 0 -2 c0 -1 1 -2 2 -2 1 0 2
-1 2 -2 l0 -2 4 0 4 0 0 -2 c0 -1 1 -2 2 -2 l2 0 0 -6 0 -6 4 0 4 0 0 -28 0
-28 -2 0 c-1 0 -2 -1 -2 -2 0 -1 -1 -2 -2 -2 l-2 0 0 -4 0 -4 -2 0 c-1 0 -2
-1 -2 -2 0 -1 -1 -2 -2 -2 -1 0 -2 -1 -2 -2 0 -1 -1 -2 -2 -2 -1 0 -2 -1 -2
-2 l0 -2 -6 0 -6 0 0 -2 0 -2 -4 0 -4 0 0 -2 0 -2 -62 0 -62 0 0 2 c0 1 -1 2
-2 2 l-2 0 0 56 0 56 2 0 c1 0 2 1 2 2 l0 2 62 0 62 0 0 -2z m-4 -188 l0 -2
14 0 14 0 0 -4 0 -4 4 0 4 0 0 -2 c0 -1 1 -2 2 -2 1 0 2 -1 2 -2 0 -1 1 -2 2
-2 l2 0 0 -4 0 -4 4 0 4 0 0 -12 0 -12 2 0 2 0 0 -12 0 -12 -2 0 -2 0 0 -10 0
-10 -2 0 c-1 0 -2 -1 -2 -2 0 -1 -1 -2 -2 -2 -1 0 -2 -1 -2 -2 0 -1 -1 -2 -2
-2 -1 0 -2 -1 -2 -2 0 -1 -1 -2 -2 -2 -1 0 -2 -1 -2 -2 0 -1 -1 -2 -2 -2 -1 0
-2 -1 -2 -2 l0 -2 -8 0 -8 0 0 -2 0 -2 -4 0 -4 0 0 -2 0 -2 -62 0 -62 0 0 4 0
4 -4 0 -4 0 0 4 0 4 2 0 2 0 0 6 0 6 -2 0 -2 0 0 34 0 34 2 0 c1 0 2 1 2 2 0
1 -1 2 -2 2 l-2 0 0 10 0 10 8 0 8 0 0 2 0 2 54 0 54 0 0 -2z"/>
        <path class="logo-letter logo-letter-d" d="M544 490 l0 -2 -8 0 -8 0 0 -2 0 -2 -12 0 -12 0 0 -2 c0 -1 -1 -2 -2
-2 -1 0 -2 -1 -2 -2 l0 -2 -6 0 -6 0 0 -2 0 -2 -4 0 -4 0 0 -2 0 -2 -4 0 -4 0
0 -2 c0 -1 -1 -2 -2 -2 -1 0 -2 -1 -2 -2 0 -1 -1 -2 -2 -2 -1 0 -2 -1 -2 -2
l0 -2 -4 0 -4 0 0 -2 c0 -1 -1 -2 -2 -2 -1 0 -2 -1 -2 -2 0 -1 -1 -2 -2 -2
l-2 0 0 -4 0 -4 -2 0 c-1 0 -2 -1 -2 -2 0 -1 -1 -2 -2 -2 -1 0 -2 -1 -2 -2 0
-1 -1 -2 -2 -2 -1 0 -2 -1 -2 -2 0 -1 -1 -2 -2 -2 l-2 0 0 -4 0 -4 -2 0 -2 0
0 -4 0 -4 -2 0 -2 0 0 -10 0 -10 4 0 4 0 0 -2 0 -2 8 0 8 0 0 -2 0 -2 4 0 4 0
0 -2 0 -2 12 0 12 0 0 -2 0 -2 8 0 8 0 0 6 0 6 2 0 c1 0 2 1 2 2 0 1 1 2 2 2
l2 0 0 4 0 4 2 0 c1 0 2 1 2 2 0 1 1 2 2 2 l2 0 0 4 0 4 4 0 4 0 0 2 c0 1 1 2
2 2 1 0 2 1 2 2 l0 2 8 0 8 0 0 2 c0 1 1 2 2 2 1 0 2 1 2 2 l0 2 20 0 20 0 0
-2 0 -2 4 0 4 0 0 -2 0 -2 6 0 6 0 0 -2 c0 -1 1 -2 2 -2 l2 0 0 -4 0 -4 2 0
c1 0 2 -1 2 -2 0 -1 1 -2 2 -2 1 0 2 -1 2 -2 0 -1 1 -2 2 -2 1 0 2 -1 2 -2 0
-1 1 -2 2 -2 l2 0 0 -16 0 -16 2 0 c1 0 2 -1 2 -2 0 -1 -1 -2 -2 -2 l-2 0 0
-6 0 -6 -8 0 -8 0 0 -2 0 -2 -4 0 -4 0 0 -2 0 -2 -16 0 -16 0 0 -2 0 -2 -4 0
-4 0 0 -2 0 -2 -16 0 -16 0 0 -2 c0 -1 -1 -2 -2 -2 -1 0 -2 -1 -2 -2 l0 -2
-14 0 -14 0 0 -2 c0 -1 -1 -2 -2 -2 -1 0 -2 -1 -2 -2 l0 -2 -10 0 -10 0 0 -2
0 -2 -4 0 -4 0 0 -2 0 -2 -4 0 -4 0 0 -4 0 -4 -4 0 -4 0 0 -2 c0 -1 -1 -2 -2
-2 -1 0 -2 -1 -2 -2 0 -1 -1 -2 -2 -2 l-2 0 0 -4 0 -4 -4 0 -4 0 0 -4 0 -4 -2
0 -2 0 0 -4 0 -4 -2 0 -2 0 0 -8 0 -8 -2 0 -2 0 0 -4 0 -4 -2 0 -2 0 0 -14 0
-14 2 0 2 0 0 -6 0 -6 2 0 2 0 0 -8 0 -8 4 0 4 0 0 -6 0 -6 2 0 c1 0 2 -1 2
-2 0 -1 1 -2 2 -2 1 0 2 -1 2 -2 0 -1 1 -2 2 -2 1 0 2 -1 2 -2 l0 -2 4 0 4 0
0 -2 c0 -1 1 -2 2 -2 1 0 2 -1 2 -2 l0 -2 4 0 4 0 0 -2 c0 -1 1 -2 2 -2 1 0 2
-1 2 -2 l0 -2 10 0 10 0 0 -2 0 -2 4 0 4 0 0 -2 0 -2 30 0 30 0 0 2 c0 1 1 2
2 2 1 0 2 1 2 2 l0 2 12 0 12 0 0 2 c0 1 1 2 2 2 1 0 2 1 2 2 l0 2 6 0 6 0 0
4 0 4 4 0 4 0 0 2 c0 1 1 2 2 2 1 0 2 1 2 2 l0 2 4 0 4 0 0 2 c0 1 1 2 2 2 l2
0 0 4 0 4 4 0 4 0 0 2 c0 1 1 2 2 2 1 0 2 -1 2 -2 0 -1 1 -2 2 -2 l2 0 0 -4 0
-4 2 0 c1 0 2 -1 2 -2 0 -1 1 -2 2 -2 l2 0 0 -4 0 -4 4 0 4 0 0 -4 0 -4 4 0 4
0 0 -2 0 -2 4 0 4 0 0 -2 0 -2 8 0 8 0 0 -2 0 -2 4 0 4 0 0 -2 0 -2 16 0 16 0
0 2 0 2 6 0 6 0 0 2 0 2 6 0 6 0 0 4 0 4 2 0 2 0 0 8 0 8 2 0 2 0 0 12 0 12
-2 0 c-1 0 -2 1 -2 2 l0 2 -12 0 -12 0 0 2 0 2 -6 0 -6 0 0 8 0 8 -2 0 -2 0 0
76 0 76 -2 0 -2 0 0 20 0 20 -2 0 c-1 0 -2 1 -2 2 0 1 -1 2 -2 2 l-2 0 0 6 0
6 -2 0 c-1 0 -2 1 -2 2 0 1 -1 2 -2 2 l-2 0 0 6 0 6 -4 0 -4 0 0 4 0 4 -4 0
-4 0 0 4 0 4 -4 0 -4 0 0 2 c0 1 -1 2 -2 2 -1 0 -2 1 -2 2 l0 2 -6 0 -6 0 0 4
0 4 -8 0 -8 0 0 2 c0 1 -1 2 -2 2 -1 0 -2 1 -2 2 l0 2 -14 0 -14 0 0 2 0 2 -6
0 -6 0 0 2 0 2 -26 0 -26 0 0 -2z m76 -192 c0 -1 1 -2 2 -2 l2 0 0 -30 0 -30
-4 0 -4 0 0 -4 0 -4 -2 0 -2 0 0 -4 0 -4 -2 0 c-1 0 -2 -1 -2 -2 0 -1 -1 -2
-2 -2 -1 0 -2 -1 -2 -2 l0 -2 -6 0 -6 0 0 -4 0 -4 -12 0 -12 0 0 -2 0 -2 -12
0 -12 0 0 2 0 2 -10 0 -10 0 0 2 c0 1 -1 2 -2 2 -1 0 -2 1 -2 2 l0 2 -4 0 -4
0 0 4 0 4 -2 0 -2 0 0 4 0 4 -2 0 -2 0 0 12 0 12 2 0 2 0 0 4 0 4 2 0 2 0 0 4
0 4 4 0 4 0 0 2 c0 1 1 2 2 2 1 0 2 1 2 2 l0 2 6 0 6 0 0 2 0 2 4 0 4 0 0 2 0
2 12 0 12 0 0 2 0 2 4 0 4 0 0 2 0 2 16 0 16 0 0 2 0 2 4 0 4 0 0 2 c0 1 1 2
2 2 1 0 2 -1 2 -2z"/>
        <path class="logo-letter logo-letter-l" d="M1000 490 l0 -2 -4 0 -4 0 0 -2 0 -2 -12 0 -12 0 0 -4 0 -4 -8 0 -8
0 0 -4 0 -4 -4 0 -4 0 0 -2 c0 -1 -1 -2 -2 -2 -1 0 -2 -1 -2 -2 l0 -2 -4 0 -4
0 0 -2 c0 -1 -1 -2 -2 -2 l-2 0 0 -4 0 -4 -2 0 c-1 0 -2 -1 -2 -2 0 -1 -1 -2
-2 -2 -1 0 -2 -1 -2 -2 0 -1 -1 -2 -2 -2 -1 0 -2 -1 -2 -2 0 -1 -1 -2 -2 -2
l-2 0 0 -4 0 -4 -4 0 -4 0 0 4 0 4 -2 0 -2 0 0 4 0 4 -2 0 -2 0 0 20 0 20 -36
0 -36 0 0 -2 c0 -1 -1 -2 -2 -2 -1 0 -2 -1 -2 -2 0 -1 -1 -2 -2 -2 l-2 0 0 -4
0 -4 2 0 2 0 0 -4 0 -4 -2 0 -2 0 0 -152 0 -152 2 0 2 0 0 -4 0 -4 44 0 44 0
0 100 0 100 2 0 2 0 0 16 0 16 4 0 4 0 0 4 0 4 2 0 2 0 0 4 0 4 2 0 c1 0 2 1
2 2 0 1 1 2 2 2 1 0 2 1 2 2 l0 2 4 0 4 0 0 2 c0 1 1 2 2 2 1 0 2 1 2 2 l0 2
4 0 4 0 0 2 c0 1 1 2 2 2 1 0 2 1 2 2 l0 2 26 0 26 0 0 -2 c0 -1 1 -2 2 -2 1
0 2 -1 2 -2 l0 -2 6 0 6 0 0 -4 0 -4 4 0 4 0 0 -4 0 -4 2 0 c1 0 2 -1 2 -2 0
-1 1 -2 2 -2 l2 0 0 -10 0 -10 2 0 2 0 0 -4 0 -4 2 0 2 0 0 -108 0 -108 42 0
42 0 0 4 0 4 2 0 2 0 0 116 0 116 -2 0 -2 0 0 6 0 6 -2 0 -2 0 0 12 0 12 -2 0
c-1 0 -2 1 -2 2 0 1 -1 2 -2 2 l-2 0 0 4 0 4 -2 0 c-1 0 -2 1 -2 2 0 1 -1 2
-2 2 l-2 0 0 6 0 6 -4 0 -4 0 0 4 0 4 -4 0 -4 0 0 4 0 4 -4 0 -4 0 0 2 c0 1
-1 2 -2 2 -1 0 -2 1 -2 2 l0 2 -6 0 -6 0 0 2 c0 1 -1 2 -2 2 -1 0 -2 1 -2 2
l0 2 -10 0 -10 0 0 2 0 2 -4 0 -4 0 0 2 0 2 -20 0 -20 0 0 -2z"/>
        <path class="logo-letter logo-letter-y" d="M1808 476 l0 -8 2 0 c1 0 2 -1 2 -2 0 -1 1 -2 2 -2 l2 0 0 -6 0 -6 2
0 2 0 0 -4 0 -4 2 0 2 0 0 -8 0 -8 4 0 4 0 0 -8 0 -8 2 0 2 0 0 -4 0 -4 2 0 2
0 0 -8 0 -8 2 0 c1 0 2 -1 2 -2 0 -1 1 -2 2 -2 l2 0 0 -10 0 -10 4 0 4 0 0 -8
0 -8 4 0 4 0 0 -12 0 -12 4 0 4 0 0 -10 0 -10 2 0 c1 0 2 -1 2 -2 0 -1 1 -2 2
-2 l2 0 0 -8 0 -8 4 0 4 0 0 -8 0 -8 2 0 2 0 0 -4 0 -4 2 0 2 0 0 -6 0 -6 2 0
c1 0 2 -1 2 -2 0 -1 1 -2 2 -2 l2 0 0 -8 0 -8 2 0 2 0 0 -4 0 -4 2 0 2 0 0 -6
0 -6 2 0 c1 0 2 -1 2 -2 0 -1 1 -2 2 -2 l2 0 0 -8 0 -8 4 0 4 0 0 -8 0 -8 2 0
2 0 0 -4 0 -4 2 0 2 0 0 -8 0 -8 4 0 4 0 0 -8 0 -8 -4 0 -4 0 0 -10 0 -10 -2
0 c-1 0 -2 -1 -2 -2 0 -1 -1 -2 -2 -2 l-2 0 0 -8 0 -8 -4 0 -4 0 0 -4 0 -4 -4
0 -4 0 0 -4 0 -4 -4 0 -4 0 0 -2 c0 -1 -1 -2 -2 -2 -1 0 -2 -1 -2 -2 l0 -2
-30 0 -30 0 0 2 0 2 -4 0 -4 0 0 2 0 2 -8 0 -8 0 0 -2 c0 -1 -1 -2 -2 -2 l-2
0 0 -4 0 -4 -2 0 -2 0 0 -10 0 -10 -2 0 c-1 0 -2 -1 -2 -2 0 -1 -1 -2 -2 -2
l-2 0 0 -10 0 -10 4 0 4 0 0 -4 0 -4 12 0 12 0 0 -4 0 -4 18 0 18 0 0 -2 0 -2
14 0 14 0 0 2 0 2 18 0 18 0 0 2 c0 1 1 2 2 2 1 0 2 1 2 2 l0 2 4 0 4 0 0 2 0
2 4 0 4 0 0 2 0 2 4 0 4 0 0 4 0 4 4 0 4 0 0 2 c0 1 1 2 2 2 1 0 2 1 2 2 0 1
1 2 2 2 1 0 2 1 2 2 0 1 1 2 2 2 1 0 2 1 2 2 0 1 1 2 2 2 l2 0 0 4 0 4 4 0 4
0 0 4 0 4 2 0 c1 0 2 1 2 2 0 1 1 2 2 2 l2 0 0 6 0 6 4 0 4 0 0 8 0 8 2 0 c1
0 2 1 2 2 0 1 1 2 2 2 l2 0 0 6 0 6 2 0 2 0 0 4 0 4 2 0 2 0 0 8 0 8 2 0 c1 0
2 1 2 2 0 1 1 2 2 2 l2 0 0 10 0 10 4 0 4 0 0 10 0 10 2 0 c1 0 2 1 2 2 0 1 1
2 2 2 l2 0 0 8 0 8 2 0 2 0 0 4 0 4 2 0 2 0 0 6 0 6 2 0 c1 0 2 1 2 2 0 1 1 2
2 2 l2 0 0 10 0 10 2 0 c1 0 2 1 2 2 0 1 1 2 2 2 l2 0 0 8 0 8 2 0 2 0 0 4 0
4 2 0 2 0 0 8 0 8 2 0 c1 0 2 1 2 2 0 1 1 2 2 2 l2 0 0 10 0 10 2 0 c1 0 2 1
2 2 0 1 1 2 2 2 l2 0 0 8 0 8 2 0 c1 0 2 1 2 2 0 1 1 2 2 2 l2 0 0 8 0 8 2 0
2 0 0 4 0 4 2 0 2 0 0 6 0 6 2 0 2 0 0 4 0 4 2 0 2 0 0 8 0 8 2 0 c1 0 2 1 2
2 0 1 1 2 2 2 l2 0 0 10 0 10 2 0 c1 0 2 1 2 2 0 1 1 2 2 2 l2 0 0 8 0 8 2 0
c1 0 2 1 2 2 0 1 1 2 2 2 l2 0 0 10 0 10 2 0 2 0 0 4 0 4 2 0 2 0 0 8 0 8 -44
0 -44 0 0 -12 0 -12 -2 0 -2 0 0 -4 0 -4 -2 0 -2 0 0 -10 0 -10 -2 0 c-1 0 -2
-1 -2 -2 0 -1 -1 -2 -2 -2 l-2 0 0 -12 0 -12 -2 0 c-1 0 -2 -1 -2 -2 0 -1 -1
-2 -2 -2 l-2 0 0 -10 0 -10 -2 0 -2 0 0 -4 0 -4 -2 0 -2 0 0 -8 0 -8 -2 0 -2
0 0 -4 0 -4 -2 0 -2 0 0 -12 0 -12 -2 0 c-1 0 -2 -1 -2 -2 0 -1 -1 -2 -2 -2
l-2 0 0 -10 0 -10 -4 0 -4 0 0 -12 0 -12 -2 0 -2 0 0 -4 0 -4 -2 0 -2 0 0 -12
0 -12 -2 0 -2 0 0 -4 0 -4 -2 0 -2 0 0 -8 0 -8 -4 0 -4 0 0 2 c0 1 -1 2 -2 2
-1 0 -2 1 -2 2 0 1 -1 2 -2 2 l-2 0 0 10 0 10 -2 0 c-1 0 -2 1 -2 2 0 1 -1 2
-2 2 l-2 0 0 12 0 12 -2 0 -2 0 0 4 0 4 -2 0 -2 0 0 10 0 10 -2 0 -2 0 0 4 0
4 -2 0 -2 0 0 10 0 10 -4 0 -4 0 0 14 0 14 -2 0 c-1 0 -2 1 -2 2 0 1 -1 2 -2
2 l-2 0 0 12 0 12 -2 0 c-1 0 -2 1 -2 2 0 1 -1 2 -2 2 l-2 0 0 10 0 10 -2 0
c-1 0 -2 1 -2 2 0 1 -1 2 -2 2 l-2 0 0 12 0 12 -2 0 c-1 0 -2 1 -2 2 0 1 -1 2
-2 2 l-2 0 0 10 0 10 -2 0 -2 0 0 4 0 4 -2 0 -2 0 0 6 0 6 -48 0 -48 0 0 -8z"/>
      </g>
    </g>
  </g>
</svg>